<?xml version="1.0" encoding="utf-8"?>
<!-- Svg Vector Icons : http://www.onlinewebfonts.com/icon -->
<!DOCTYPE svg PUBLIC "-//W3C//DTD SVG 1.1//EN" "http://www.w3.org/Graphics/SVG/1.1/DTD/svg11.dtd">
<svg version="1.1" xmlns="http://www.w3.org/2000/svg" xmlns:xlink="http://www.w3.org/1999/xlink" x="0px" y="0px" viewBox="0 0 1000 1000" enable-background="new 0 0 1000 1000" xml:space="preserve">
<metadata> Svg Vector Icons : http://www.onlinewebfonts.com/icon </metadata>
<g><g transform="translate(0.000000,511.000000) scale(0.100000,-0.100000)"><path d="M1622.7,4905.7c-75-78.5-98.9-133-98.9-235.4c0-249,1258.8-7610.8,1316.8-7699.5c71.6-109.2,269.5-170.6,395.7-122.8c54.6,20.4,344.5,344.5,760.7,863.1c371.8,457.1,685.7,832.4,699.3,839.2c13.6,6.8,498-726.6,1074.6-1630.6C6347.5-3981,6845.5-4734.9,6879.6-4752c156.9-85.3,286.6-40.9,788,276.3c269.5,167.1,518.5,337.7,549.2,378.7c37.5,40.9,61.4,126.2,61.4,204.7c0,116-126.2,327.5-1026.8,1736.4C6688.6-1272.4,6221.2-532.1,6211-511.6c-10.3,27.3,320.7,126.2,1033.6,303.6C7824.6-57.9,8315.8,82,8349.9,112.7c34.1,30.7,78.5,109.2,99,170.6c85.3,249,184.2,174-3274.9,2538.1C1646.6,5233.2,1837.6,5120.6,1622.7,4905.7z M7254.9,535.7c0-10.2-303.6-92.1-672.1-184.2c-545.8-133-719.8-191-904-296.8c-126.2-75-252.4-167.2-283.1-208.1C5266.1-341.1,5283.1-371.7,6402-2121.8l1057.5-1654.5l-143.3-92.1l-143.3-95.5l-71.6,109.1c-40.9,61.4-501.5,777.8-1023.4,1593.1c-518.5,815.3-989.3,1528.3-1043.9,1586.3c-143.3,146.7-296.8,136.5-559.5-37.5c-153.5-102.3-317.3-276.3-665.2-702.8c-252.4-310.4-464-562.9-470.8-556.1c-3.4,3.4-98.9,542.4-211.5,1197.4c-358.2,2118.5-784.6,4653.1-784.6,4666.8C2342.5,3913,7251.5,556.2,7254.9,535.7z"/></g></g>
</svg>